<svg width="931" height="598" viewBox="0 0 931 598" fill="none" xmlns="http://www.w3.org/2000/svg">
<g clip-path="url(#clip0_120_2)">
<path d="M224.495 390.547C224.495 412.929 224.495 435.305 224.495 457.673L208.553 461.833V395.227L224.495 390.547Z" fill="white"/>
<path d="M373.344 313.852C365.753 326.946 357.116 339.405 347.516 351.107C343.576 355.892 339.545 360.447 335.424 364.774C334.072 366.23 332.677 367.644 331.262 368.934C328.487 371.708 325.712 374.398 322.937 377.005C321.55 378.309 320.114 379.578 318.629 380.812C317.63 381.685 316.548 382.518 315.632 383.35C315.07 383.849 314.488 384.327 313.905 384.806C312.85 385.679 311.789 386.532 310.721 387.364C309.389 388.425 308.057 389.444 306.725 390.464L303.103 393.147L302.687 393.438L301.792 394.083L298.629 396.288L297.047 397.37C296.402 397.827 295.757 398.264 295.112 398.659L294.238 399.242L293.53 399.7L291.282 401.135L290.429 401.655L290.179 401.821L286.704 403.901L286.308 404.13L282.395 406.398L281.958 406.647L278.004 408.727C274.882 410.391 271.761 411.931 268.618 413.408C263.373 415.841 258.108 418.005 252.863 419.919V410.62C255.215 409.663 257.567 408.54 259.919 407.542C262.27 406.543 265.08 405.087 267.661 403.735C274.314 400.266 280.762 396.419 286.974 392.211L289.846 390.235L292.718 388.155L294.799 386.574L295.257 386.22C297.234 384.743 299.212 383.225 301.189 381.623C303.964 379.363 306.773 376.991 309.618 374.509C310.866 373.427 312.094 372.304 313.322 371.16C315.778 368.893 318.213 366.563 320.627 364.108C323.041 361.654 325.435 359.178 327.807 356.599C328.994 355.288 330.18 353.978 331.324 352.647C331.99 351.898 332.636 351.149 333.281 350.379C333.51 350.13 333.739 349.88 333.947 349.61C334.155 349.339 334.405 349.09 334.613 348.819L335.508 347.758C336.07 347.093 336.632 346.427 337.173 345.678C338.671 343.848 340.17 341.976 341.626 340.083C346.094 334.272 350.43 328.156 354.634 321.736C422.314 217.229 387.454 166.848 354.155 164.331C352.346 164.228 350.532 164.228 348.723 164.331C348.203 164.331 347.662 164.331 347.142 164.331L345.331 164.498L343.562 164.726L341.855 165.018C340.607 165.246 339.379 165.517 338.234 165.829L337.069 166.162L335.591 166.619L334.613 166.952C334.155 167.098 333.697 167.264 333.26 167.451L331.97 167.971L330.908 168.429C329.639 168.991 328.473 169.594 327.391 170.176C327.048 170.354 326.715 170.548 326.392 170.759C324.497 171.854 322.688 173.092 320.981 174.461L320.315 175.002C319.958 175.288 319.617 175.593 319.295 175.918H319.191L318.921 176.188C318.785 176.302 318.66 176.427 318.546 176.562C319.225 176.255 319.92 175.985 320.627 175.751L321.356 175.522L321.938 175.356C322.424 175.218 322.918 175.106 323.416 175.023C327.858 174.187 332.453 175.04 336.299 177.415C337.026 177.889 337.721 178.411 338.38 178.975L339.067 179.558C339.295 179.766 339.524 179.995 339.733 180.223C339.963 180.437 340.179 180.666 340.378 180.91C340.486 181.011 340.583 181.122 340.669 181.243C340.981 181.596 341.273 181.992 341.564 182.366L342.084 183.156L342.334 183.552C342.584 183.947 342.813 184.342 343.042 184.758C343.187 185.049 343.312 185.32 343.437 185.611C343.562 185.902 343.687 186.193 343.812 186.485C343.937 186.776 344.02 187.067 344.145 187.358C344.291 187.768 344.416 188.184 344.519 188.606C344.531 188.496 344.531 188.384 344.519 188.274C344.519 188.586 344.686 188.898 344.748 189.21L344.936 190.125C344.936 190.583 345.06 191.04 345.102 191.498C345.144 191.955 345.102 192.517 345.102 193.037C345.102 193.557 345.102 193.62 345.102 193.89V194.784C345.093 194.86 345.093 194.937 345.102 195.013C345.102 195.554 344.956 196.074 344.852 196.615C344.602 197.877 344.226 199.11 343.728 200.297C343.068 201.849 342.244 203.327 341.273 204.707C333.843 214.816 319.212 212.757 311.595 205.56L310.991 204.936C310.769 204.686 310.561 204.436 310.367 204.187L309.93 203.604C309.724 203.34 309.536 203.062 309.368 202.772L308.889 201.94C308.598 201.379 308.306 200.775 308.036 200.151C307.765 199.527 307.744 199.444 307.62 199.07C307.473 198.653 307.348 198.23 307.245 197.801L307.12 197.468C306.814 196.378 306.598 195.265 306.475 194.14C306.475 193.848 306.475 193.536 306.371 193.245V192.85C306.371 192.684 306.371 192.496 306.371 192.33C306.361 192.136 306.361 191.941 306.371 191.747C306.371 190.999 306.371 190.271 306.371 189.522C306.35 189.231 306.35 188.939 306.371 188.648C306.371 188.045 306.371 187.442 306.537 186.838V186.339C306.537 186.131 306.537 185.944 306.641 185.736C306.708 185.19 306.805 184.648 306.933 184.113C307.058 183.448 307.224 182.803 307.411 182.137C307.473 181.847 307.556 181.562 307.661 181.284C307.765 180.952 307.869 180.619 307.994 180.265C308.119 179.911 308.265 179.537 308.41 179.183C308.834 178.072 309.328 176.988 309.888 175.938C311.511 172.849 313.619 170.04 316.132 167.618C316.978 166.829 317.86 166.079 318.775 165.371C319.825 164.554 320.915 163.79 322.042 163.083C323 162.501 324.019 161.918 325.081 161.377C327.349 160.198 329.708 159.203 332.136 158.403C333.524 157.945 334.911 157.529 336.299 157.155L338.38 156.676H338.734C339.524 156.489 340.336 156.343 341.148 156.198C342.376 155.99 343.645 155.803 344.936 155.636L345.872 155.511C346.258 155.448 346.647 155.406 347.038 155.387L348.536 155.241C349.438 155.158 350.354 155.095 351.283 155.054H353.156C353.843 155.054 354.509 155.054 355.237 155.054H355.466L357.818 155.241L358.984 155.387L360.17 155.574L361.086 155.74L362.542 156.031H362.959C363.458 156.031 363.958 156.281 364.457 156.406L364.936 156.531C366.545 156.97 368.13 157.498 369.681 158.112C370.472 158.43 371.263 158.763 372.054 159.11C373.157 159.63 374.26 160.171 375.363 160.774C376.466 161.377 377.444 162.022 378.588 162.688L379.671 163.416C381.065 164.373 382.459 165.496 383.833 166.536C384.499 167.098 385.165 167.68 385.81 168.283C408.266 189.293 418.88 235.659 373.344 313.852Z" fill="white"/>
<path d="M252.778 420.189C258.023 418.275 263.184 416.029 268.533 413.678L265.37 415.134C263.982 415.758 262.595 416.362 261.207 416.944C259.834 417.526 258.481 418.067 257.045 418.587H256.858C255.484 419.128 254.09 419.648 252.695 420.147C247.367 422.103 242.046 423.774 236.732 425.161V416.424C242.149 414.836 247.478 412.962 252.695 410.808L252.778 420.189Z" fill="white"/>
<path d="M268.535 413.595C271.657 412.118 274.779 410.579 277.921 408.915C275.146 410.399 272.371 411.786 269.597 413.075L268.535 413.595Z" fill="white"/>
<path d="M277.92 408.914L281.874 406.834C280.938 407.375 280.022 407.874 279.085 408.373L277.92 408.914Z" fill="white"/>
<path d="M282.312 406.522L286.225 404.255C284.914 405.045 283.624 405.815 282.312 406.522Z" fill="white"/>
<path d="M294.131 387.26L294.777 386.803L292.695 388.384C293.153 388.037 293.632 387.663 294.131 387.26Z" fill="white"/>
<path d="M298.545 396.392L301.708 394.188L299.128 396.018L298.545 396.392Z" fill="white"/>
<path d="M306.16 193.454C306.16 193.745 306.16 194.057 306.264 194.349C306.254 194.224 306.254 194.099 306.264 193.974C306.22 193.803 306.185 193.629 306.16 193.454Z" fill="white"/>
<path d="M308.139 179.37C307.993 179.724 307.848 180.098 307.723 180.452C307.868 180.098 307.993 179.724 308.139 179.37Z" fill="white"/>
<path d="M313.301 371.389C315.757 369.1 318.192 366.75 320.606 364.337C318.192 366.791 315.757 369.121 313.301 371.389Z" fill="white"/>
<path d="M320.356 174.981L319.336 175.897C319.658 175.572 319.998 175.267 320.356 174.981Z" fill="white"/>
<path d="M322.938 377.11C325.712 374.517 328.487 371.826 331.262 369.039C328.515 371.826 325.685 374.531 322.938 377.11Z" fill="white"/>
<path d="M333.904 349.839C333.696 350.109 333.467 350.359 333.238 350.609C333.488 350.359 333.696 350.109 333.904 349.839Z" fill="white"/>
<path d="M343.603 186.214C343.603 186.38 343.728 186.526 343.769 186.672C343.644 186.38 343.54 186.089 343.395 185.798L343.603 186.214Z" fill="white"/>
<path d="M344.539 189.085C344.551 189.195 344.551 189.307 344.539 189.418C344.539 189.105 344.394 188.793 344.311 188.481C344.322 188.592 344.322 188.704 344.311 188.814L344.539 189.085Z" fill="white"/>
<path d="M344.913 195.305C344.904 195.229 344.904 195.152 344.913 195.076V195.222C344.92 195.249 344.92 195.278 344.913 195.305Z" fill="white"/>
<path d="M345.018 193.287C345.028 193.342 345.028 193.399 345.018 193.454V193.578C345.028 193.64 345.028 193.704 345.018 193.766C345.038 193.89 345.038 194.016 345.018 194.14C345.018 193.87 345.018 193.558 345.018 193.287Z" fill="white"/>
<path d="M357.588 155.158H357.879L355.527 154.971C356.235 155.033 356.901 155.075 357.588 155.158Z" fill="white"/>
<path d="M361.148 155.698C361.627 155.698 362.127 155.865 362.605 155.969L361.148 155.698Z" fill="white"/>
<path d="M236.814 416.424C242.231 414.836 247.56 412.962 252.777 410.808V420.189C247.449 422.144 242.128 423.822 236.814 425.223V416.424Z" fill="white"/>
<path d="M294.131 387.26L294.777 386.803L292.695 388.384C293.153 388.037 293.632 387.663 294.131 387.26Z" fill="white"/>
<path d="M313.301 371.389C315.757 369.1 318.192 366.75 320.606 364.337C318.192 366.791 315.757 369.121 313.301 371.389Z" fill="white"/>
<path d="M320.356 174.981L319.336 175.897C319.658 175.572 319.998 175.267 320.356 174.981Z" fill="white"/>
<path d="M333.905 349.838L334.592 349.048C334.384 349.318 334.155 349.589 333.926 349.838C333.697 350.088 333.489 350.358 333.26 350.608C333.489 350.358 333.697 350.109 333.905 349.838Z" fill="white"/>
<path d="M343.604 186.214C343.604 186.381 343.728 186.526 343.77 186.672C343.645 186.381 343.541 186.089 343.395 185.798C343.25 185.507 343.146 185.237 343 184.945C343.229 185.361 343.416 185.777 343.604 186.214Z" fill="white"/>
<path d="M344.539 189.085C344.551 189.195 344.551 189.307 344.539 189.418C344.539 189.105 344.394 188.793 344.311 188.481C344.322 188.592 344.322 188.704 344.311 188.814L344.539 189.085Z" fill="white"/>
<path d="M344.935 195.076V194.182C344.935 194.473 344.935 194.764 344.935 195.076C344.925 195.124 344.925 195.174 344.935 195.222C344.932 195.173 344.932 195.125 344.935 195.076Z" fill="white"/>
<path d="M344.955 191.748C344.987 192.316 344.987 192.886 344.955 193.454V193.579C344.965 193.641 344.965 193.704 344.955 193.766C344.976 193.89 344.976 194.016 344.955 194.14C344.955 193.87 344.955 193.558 344.955 193.287C344.955 193.017 344.997 192.247 344.955 191.748Z" fill="white"/>
<path d="M357.588 155.158H357.879L355.527 154.971C356.235 155.033 356.901 155.075 357.588 155.158Z" fill="white"/>
<path d="M362.605 156.01L361.148 155.719C361.627 155.76 362.127 155.864 362.605 156.01Z" fill="white"/>
<path d="M224.496 390.547C224.496 412.929 224.496 435.305 224.496 457.673L208.471 461.792V395.227L224.496 390.547Z" fill="white"/>
<path d="M252.778 420.189C258.023 418.275 263.184 416.029 268.533 413.678L265.37 415.134C263.982 415.758 262.595 416.362 261.207 416.944C259.834 417.526 258.481 418.067 257.045 418.587H256.858C255.484 419.128 254.09 419.648 252.695 420.147C247.367 422.103 242.046 423.774 236.732 425.161V416.424C242.149 414.836 247.478 412.962 252.695 410.808L252.778 420.189Z" fill="white"/>
<path d="M268.535 413.595C271.657 412.118 274.779 410.579 277.921 408.915C275.146 410.399 272.371 411.786 269.597 413.075L268.535 413.595Z" fill="white"/>
<path d="M277.92 408.914L281.874 406.834C280.938 407.375 280.022 407.874 279.085 408.373L277.92 408.914Z" fill="white"/>
<path d="M282.312 406.522L286.225 404.255C284.914 405.045 283.624 405.815 282.312 406.522Z" fill="white"/>
<path d="M294.131 387.26L294.777 386.803L292.695 388.384C293.153 388.037 293.632 387.663 294.131 387.26Z" fill="white"/>
<path d="M298.545 396.392L301.708 394.188L299.128 396.018L298.545 396.392Z" fill="white"/>
<path d="M306.16 193.454C306.16 193.745 306.16 194.057 306.264 194.349C306.254 194.224 306.254 194.099 306.264 193.974C306.22 193.803 306.185 193.629 306.16 193.454Z" fill="white"/>
<path d="M308.139 179.37C307.993 179.724 307.848 180.098 307.723 180.452C307.868 180.098 307.993 179.724 308.139 179.37Z" fill="white"/>
<path d="M313.301 371.389C315.757 369.1 318.192 366.75 320.606 364.337C318.192 366.791 315.757 369.121 313.301 371.389Z" fill="white"/>
<path d="M320.356 174.981L319.336 175.897C319.658 175.572 319.998 175.267 320.356 174.981Z" fill="white"/>
<path d="M322.938 377.11C325.712 374.517 328.487 371.826 331.262 369.039C328.515 371.826 325.685 374.531 322.938 377.11Z" fill="white"/>
<path d="M333.904 349.839C333.696 350.109 333.467 350.359 333.238 350.609C333.488 350.359 333.696 350.109 333.904 349.839Z" fill="white"/>
<path d="M343.603 186.214C343.603 186.38 343.728 186.526 343.769 186.672C343.644 186.38 343.54 186.089 343.395 185.798L343.603 186.214Z" fill="white"/>
<path d="M344.539 189.085C344.551 189.195 344.551 189.307 344.539 189.418C344.539 189.105 344.394 188.793 344.311 188.481C344.322 188.592 344.322 188.704 344.311 188.814L344.539 189.085Z" fill="white"/>
<path d="M344.913 195.305C344.904 195.229 344.904 195.152 344.913 195.076V195.222C344.92 195.249 344.92 195.278 344.913 195.305Z" fill="white"/>
<path d="M345.018 193.287C345.028 193.342 345.028 193.399 345.018 193.454V193.578C345.028 193.64 345.028 193.704 345.018 193.766C345.038 193.89 345.038 194.016 345.018 194.14C345.018 193.87 345.018 193.558 345.018 193.287Z" fill="white"/>
<path d="M357.588 155.158H357.879L355.527 154.971C356.235 155.033 356.901 155.075 357.588 155.158Z" fill="white"/>
<path d="M361.148 155.698C361.627 155.698 362.127 155.865 362.605 155.969L361.148 155.698Z" fill="white"/>
<path d="M252.778 420.189C258.023 418.275 263.184 416.029 268.533 413.678L265.37 415.134C263.982 415.758 262.595 416.362 261.207 416.944C259.834 417.526 258.481 418.067 257.045 418.587H256.858C255.484 419.128 254.09 419.648 252.695 420.147C247.367 422.103 242.046 423.774 236.732 425.161V416.424C242.149 414.836 247.478 412.962 252.695 410.808L252.778 420.189Z" fill="white"/>
<path d="M277.921 408.914L281.875 406.834C280.938 407.375 280.023 407.874 279.086 408.373L277.921 408.997C275.146 410.481 272.371 411.868 269.596 413.158L268.576 413.615C271.656 412.118 274.799 410.578 277.921 408.914Z" fill="white"/>
<path d="M286.225 404.255L286.621 404.026L286.225 404.276C284.914 405.046 283.624 405.815 282.312 406.523L286.225 404.255Z" fill="white"/>
<path d="M290.345 401.758L291.199 401.238L290.345 401.779L290.096 401.925L290.345 401.758Z" fill="white"/>
<path d="M298.545 396.392L301.708 394.188L299.127 396.018L298.545 396.413L296.963 397.474L298.545 396.392Z" fill="white"/>
<path d="M302.604 393.543L303.02 393.252L302.604 393.564L301.709 394.188L302.604 393.543Z" fill="white"/>
<path d="M306.16 193.454C306.16 193.745 306.16 194.057 306.264 194.348C306.254 194.224 306.254 194.098 306.264 193.974C306.264 193.683 306.264 193.371 306.16 193.059V193.454Z" fill="white"/>
<path d="M307.057 198.093C307.159 198.522 307.284 198.945 307.431 199.361C307.265 198.862 307.077 198.301 306.932 197.76L307.057 198.093Z" fill="white"/>
<path d="M308.139 179.37C307.993 179.724 307.848 180.098 307.723 180.452C307.868 180.098 307.993 179.724 308.139 179.37Z" fill="white"/>
<path d="M331.262 369.039C328.494 371.826 325.664 374.531 322.938 377.11C325.712 374.517 328.487 371.826 331.262 369.039Z" fill="white"/>
<path d="M172.924 389.341V463.727L157.045 457.195V369.829C158.864 373.996 161.44 377.791 164.641 381.02L172.924 389.341Z" fill="white"/>
<path d="M144.619 401.051V421.457C139.103 419.19 133.785 416.47 128.719 413.324V375.153C131.959 384.892 137.399 393.754 144.619 401.051Z" fill="white"/>
<path d="M325.62 75.4258H281.915C261.955 85.4917 242.738 96.9686 224.412 109.769C199.838 126.775 177.242 146.472 157.043 168.491C147.637 178.782 138.879 189.648 130.82 201.025C119.927 216.332 110.473 232.612 102.578 249.659C66.0951 329.099 85.4294 386.241 128.718 413.241V375.154C122.724 357.785 122.1 335.631 128.718 308.86C133.713 288.537 142.891 265.551 157.043 239.944C159.354 235.784 161.789 231.478 164.411 227.11C165.243 225.695 166.138 224.219 167.054 222.762C167.408 222.18 167.741 221.618 168.115 221.036C168.657 220.121 169.218 219.205 169.843 218.29L170.384 217.396C171.279 215.96 172.195 214.525 173.131 213.069C173.818 211.946 174.567 210.843 175.212 209.741C175.379 209.47 175.545 209.2 175.733 208.929L161.58 200.609C161.872 200.006 162.184 199.423 162.496 198.841L176.752 207.349L177.085 206.849C179.167 203.729 181.248 200.609 183.537 197.385C183.953 196.74 184.349 196.157 184.786 195.554C185.847 194.036 186.867 192.517 188.053 190.957C189.219 189.314 190.384 187.691 191.591 186.11C191.924 185.632 192.278 185.174 192.632 184.717C193.485 183.573 194.339 182.428 195.233 181.305C196.128 180.182 196.69 179.371 197.315 178.497C199.604 175.585 201.935 172.756 204.287 169.948L207.825 165.787C208.699 164.789 209.573 163.707 210.468 162.833C211.363 161.96 211.696 161.461 212.341 160.753C212.986 160.046 214.152 158.673 215.13 157.758C215.608 157.196 216.087 156.676 216.587 156.135L219.271 153.306C220.895 151.621 222.56 149.957 224.204 148.314C228.241 144.279 232.362 140.347 236.691 136.499C241.963 131.742 247.36 127.117 252.883 122.624V120.648L253.882 120.17L253.403 103.799H278.211C293.391 93.3385 309.227 83.8613 325.62 75.4258ZM151.591 194.68H151.445L151.965 193.786L152.61 192.829L153.214 193.224L151.591 194.68Z" fill="white"/>
<path d="M152.611 192.746L153.214 193.141L151.591 194.681L151.445 194.597L151.966 193.703L152.611 192.746Z" fill="white"/>
<path d="M176.858 207.349L162.685 198.841C162.373 199.423 162.061 200.006 161.77 200.609L175.922 208.93L176.858 207.349Z" fill="white"/>
<path d="M278.336 103.717C269.637 109.68 261.194 115.99 253.008 122.646V120.649L254.007 120.171L253.528 103.8L278.336 103.717Z" fill="white"/>
<path d="M144.619 401.051V421.457C139.103 419.19 133.785 416.47 128.719 413.324V375.153C131.959 384.892 137.399 393.754 144.619 401.051Z" fill="white"/>
<path d="M152.611 192.746L153.214 193.141L151.591 194.681L151.445 194.597L151.966 193.703L152.611 192.746Z" fill="white"/>
<path d="M162.683 198.841L176.939 207.349L176.731 207.702C176.675 207.767 176.627 207.836 176.585 207.91C176.558 207.981 176.516 208.045 176.46 208.097V208.243L176.273 208.534C176.176 208.649 176.092 208.775 176.023 208.909L161.871 200.588C161.975 200.006 162.287 199.423 162.683 198.841Z" fill="white"/>
<path d="M278.336 103.717C269.637 109.68 261.194 115.99 253.008 122.646V120.649L254.007 120.171L253.528 103.8L278.336 103.717Z" fill="white"/>
<path d="M172.924 389.341V463.727L157.045 457.195V369.829C158.864 373.996 161.44 377.791 164.641 381.02L172.924 389.341Z" fill="white"/>
<path d="M144.619 401.051V421.457C139.103 419.19 133.785 416.47 128.719 413.324V375.153C131.959 384.892 137.399 393.754 144.619 401.051Z" fill="white"/>
<path d="M152.611 192.746L153.214 193.141L151.591 194.681L151.445 194.597L151.966 193.703L152.611 192.746Z" fill="white"/>
<path d="M176.858 207.349L162.685 198.841C162.373 199.423 162.061 200.006 161.77 200.609L175.922 208.93L176.858 207.349Z" fill="white"/>
<path d="M278.336 103.717C269.637 109.68 261.194 115.99 253.008 122.646V120.649L254.007 120.171L253.528 103.8L278.336 103.717Z" fill="white"/>
<path d="M144.619 401.051V421.457C139.103 419.19 133.785 416.47 128.719 413.324V375.153C131.959 384.892 137.399 393.754 144.619 401.051Z" fill="white"/>
<path d="M152.611 192.746L153.214 193.141L151.591 194.681L151.445 194.597L151.966 193.703L152.611 192.746Z" fill="white"/>
<path d="M162.683 198.841L176.939 207.349L176.731 207.702C176.675 207.767 176.627 207.836 176.585 207.91C176.558 207.981 176.516 208.045 176.46 208.097V208.243L176.273 208.534C176.176 208.649 176.092 208.775 176.023 208.909L161.871 200.588C161.975 200.006 162.287 199.423 162.683 198.841Z" fill="white"/>
<path d="M278.336 103.717C269.637 109.68 261.194 115.99 253.008 122.646V120.649L254.007 120.171L253.528 103.8L278.336 103.717Z" fill="white"/>
<path d="M153.214 193.141L151.591 194.681L151.445 194.597L151.966 193.703L152.611 192.746L153.214 193.141Z" fill="white"/>
<path d="M176.858 207.349L162.685 198.841C162.373 199.423 162.061 200.006 161.77 200.609L175.922 208.93L176.858 207.349Z" fill="white"/>
<path d="M176.627 207.702C176.556 207.848 176.473 207.987 176.377 208.118L176.086 208.555C176.252 208.264 176.461 208.014 176.627 207.702Z" fill="white"/>
<path d="M162.683 198.841C162.371 199.423 162.058 200.006 161.767 200.609L175.919 208.929L176.169 208.555L176.315 208.326L176.439 208.139V208.035V207.868L176.648 207.515L162.683 198.841ZM128.718 375.154V413.324C133.784 416.47 139.102 419.191 144.618 421.458V401.052C137.398 393.754 131.957 384.892 128.718 375.154ZM164.639 381.061C161.437 377.832 158.862 374.037 157.043 369.87V457.236L172.922 463.768V389.34L164.639 381.061ZM213.402 509.635L189.509 505.808L188.073 505.579C183.349 504.809 178.646 504.04 173.942 503.311L161.455 501.231L135.627 497.154L137.708 485.797L135.627 485.443C133.255 485.006 130.924 484.569 128.655 484.216L124.493 508.491L121.642 508.137L125.804 483.737C122.578 483.176 119.456 482.697 116.459 482.24C113.837 481.824 111.34 481.47 108.905 481.158H108.613C104.909 480.659 101.329 480.243 97.9575 479.931C95.7098 479.681 93.4621 479.535 91.152 479.411L89.6327 507.68H89.8408H91.152L93.9408 507.888H94.5027H94.7941H95.2727H95.3976H95.7514L97.6453 508.075L99.3727 508.262L104.846 508.928H104.971L111.922 509.947H112.172L113.005 510.072L121.059 511.715L122.745 512.006L123.889 512.214H124.014L128.697 513.026L132.485 513.712L136.918 514.523H137.355L141.517 515.272L144.66 515.855L157.147 518.288L161.184 519.1L169.509 520.785L173.005 521.492L185.056 523.905L208.948 528.71L224.494 531.851L236.982 534.306V534.43L251.841 537.155L253.028 537.384V516.063L213.402 509.635ZM224.411 75.3633V75.6753C224.563 75.5492 224.731 75.4443 224.911 75.3633H224.411ZM152.61 192.683L151.965 193.64L151.444 194.535H151.59L153.213 192.995L152.61 192.683ZM575.926 98.3905V147.066C581.129 138.745 586.429 130.681 591.826 122.874C593.782 119.975 595.773 117.133 597.799 114.345C601.725 108.895 605.687 103.598 609.683 98.4529L575.926 98.3905ZM208.469 395.227V461.917L224.411 457.756C224.411 435.374 224.411 412.998 224.411 390.63L208.469 395.227ZM236.773 416.445V425.181C242.074 423.794 247.394 422.123 252.736 420.168V410.828C247.532 412.974 242.217 414.842 236.815 416.424L236.773 416.445ZM141.434 539.173L140.601 539.048C136.439 538.424 132.547 537.738 128.718 536.968H128.322C125.492 536.407 122.724 535.803 119.997 535.179L117.167 534.493L113.129 533.432L108.967 532.246H108.676C106.47 531.601 104.368 530.936 102.432 530.166H102.245L99.1229 529.105C97.3747 528.481 95.7098 527.857 94.1281 527.212L93.6494 527.025L93.0042 526.775C91.5474 526.172 90.153 525.569 88.8418 524.966L88.2383 536.074H88.384L88.9251 536.323H89.0708L90.6525 536.989L91.4433 537.301L92.255 537.634L93.8783 538.258L95.5641 538.882C96.7088 539.319 97.8534 539.714 99.0189 540.109C101.391 540.92 103.806 541.648 106.324 542.397C108.842 543.146 110.882 543.645 113.275 544.228C114.878 544.623 116.501 545.018 118.166 545.393C121.246 546.079 124.41 546.703 127.698 547.286L128.822 547.473L134.358 548.367C136.043 548.596 137.75 548.867 139.477 549.075L142.058 549.387L144.68 549.699V539.631L141.434 539.173Z" fill="white"/>
<path d="M808.583 35.8198C799.506 26.3318 788.651 18.7197 776.637 13.4167C756.928 4.99208 736.095 5.09609 714.887 12.2518C699.278 17.4938 683.503 26.5632 667.769 38.836C661.109 44.0572 654.408 49.8816 647.769 56.2468C666.391 67.1179 682.765 81.4431 696.011 98.453H662.941C655.42 86.9758 646.184 76.7193 635.552 68.0413C626.832 77.3187 618.174 87.4906 609.683 98.453H576.841C589.982 83.5483 604.133 69.5645 619.194 56.6005C596.863 42.8923 570.244 34.4261 541.17 30.8275C524.008 28.7257 506.694 28.1549 489.431 29.1218C452.484 31.4801 416.053 39.0217 381.209 51.5249V75.4258H224.411V75.7378C218.862 79.2602 213.464 82.8727 208.22 86.5754C190.467 98.9363 173.64 112.577 157.876 127.388C157.584 110.053 157.307 92.7187 157.043 75.3842H0.349609V12.9798H381.209V37.5463C416.878 27.8656 453.552 22.3648 490.493 21.1548C507.769 20.6008 525.064 21.2402 542.252 23.0685C574.615 26.5424 604.688 34.4261 630.994 46.9486C640.153 39.7857 649.73 33.173 659.673 27.1456C674.678 17.8347 690.842 10.5334 707.749 5.42891C737.489 -3.16208 763.941 -1.28995 785.107 9.13157C795.912 14.4822 805.47 22.0442 813.162 31.3267C816.783 35.1334 812.183 39.6681 808.583 35.8198Z" fill="white"/>
<path d="M864.526 368.061V430.091H671.828L670.892 596.045H604.293L603.544 515.876C617.227 500.166 629.747 483.481 641.006 465.953C652.681 447.752 658.613 435.333 661.818 420.19C662.835 415.388 663.53 410.523 663.899 405.629C662.349 410.693 660.256 415.575 657.655 420.19C655.712 423.608 653.507 426.869 651.058 429.946C642.947 440.122 634.144 449.728 624.71 458.693C615.553 467.43 608.06 473.546 604.252 476.687C604.252 476.687 598.175 481.596 591.765 486.193C507.663 547.203 407.079 556.543 349.388 552.092C329.762 550.636 307.369 547.328 283.955 543.21L283.269 543.085L260.146 538.758L252.841 537.406V516.064L213.403 509.636L189.51 505.809L188.074 505.58C183.35 504.81 178.647 504.04 173.943 503.312L161.456 501.232L135.628 497.155L137.709 485.798L135.628 485.444C133.256 485.007 130.925 484.57 128.656 484.217L124.494 508.492L121.643 508.138L125.805 483.738C122.579 483.177 119.457 482.698 116.46 482.241C113.838 481.824 111.341 481.471 108.906 481.159H108.614C104.91 480.66 101.33 480.244 97.9586 479.932C95.7109 479.682 93.4632 479.536 91.1531 479.412L89.6338 507.681C88.8638 507.681 88.0521 507.681 87.3029 507.577C86.5536 507.473 85.7211 507.577 84.9927 507.577C81.626 507.391 78.2551 507.857 75.0654 508.95C74.6763 509.113 74.312 509.33 73.9832 509.594C73.4048 509.993 72.9733 510.57 72.7553 511.238C71.6522 514.712 77.6669 519.787 88.7389 524.821L88.1353 535.929C69.0507 527.608 58.1036 517.062 59.1442 506.578C59.4276 502.984 60.3288 499.466 61.8082 496.177C62.5069 494.645 63.3501 493.182 64.3264 491.809C64.9689 490.909 65.6638 490.048 66.4076 489.23C78.3953 476.291 104.764 473.234 144.557 479.391C148.553 480.015 152.673 480.701 157.044 481.471V457.196L172.923 463.727V389.341L164.599 381.021C161.397 377.791 158.821 373.997 157.002 369.829V312.834C162.839 292.154 171.169 272.261 181.81 253.591C183.891 249.68 186.201 245.77 188.72 241.547C189.441 240.299 190.211 239.03 191.03 237.74L191.404 237.137C191.571 236.825 191.758 236.534 191.966 236.222L192.362 235.577C192.611 235.14 192.861 234.703 193.153 234.287L193.964 233.102L194.464 232.186C195.213 230.98 195.983 229.773 196.774 228.567L197.065 228.151L197.315 227.714C197.71 227.069 198.147 226.445 198.585 225.8L199.188 224.906L199.5 224.386L199.771 223.991V223.887L200.582 222.618L200.728 222.368C202.601 219.601 204.495 216.752 206.493 213.923L206.847 213.403L207.346 212.675L207.638 212.3L207.887 211.905C208.803 210.574 209.74 209.263 210.718 207.911L214.568 202.628L214.797 202.336L215.317 201.629C215.942 200.776 216.587 199.944 217.232 199.112L217.69 198.55C218.127 197.947 218.606 197.323 219.064 196.741L219.417 196.304C221.061 194.224 222.726 192.144 224.35 190.23C224.35 257.1 224.294 323.969 224.183 390.839L208.47 395.228V461.918L224.412 457.757C224.412 471.334 224.412 484.924 224.412 498.528C228.575 499.735 232.612 501.003 236.899 502.293L240.021 503.292C252.841 507.265 266.307 511.758 280.417 516.646C365.476 465.766 423.396 337.754 491.992 218.915C519.818 170.572 548.122 131.05 575.927 99.5771V147.067C551.274 186.943 530.193 228.917 512.929 272.5C470.41 376.819 390.367 477.685 299.127 523.344C302.183 524.276 305.179 525.394 308.097 526.693C418.193 566.674 520.983 518.913 591.827 436.124C595.323 431.963 598.757 427.803 602.108 423.643L604.189 421.001C605.396 419.42 606.624 417.818 607.811 416.196C635.572 378.903 656.881 337.222 670.85 292.885C671.87 289.661 672.931 286.395 673.785 283.129C674.034 282.318 674.242 281.507 674.451 280.716C678.155 267.556 681.083 254.95 683.233 242.899C685.576 230.121 687.078 217.204 687.729 204.229H730.643C730.643 205.873 730.643 207.516 730.643 209.18C730.643 243.918 723.276 283.774 706.917 329.1C703.546 338.44 699.904 347.385 696.033 356.017C694.492 359.47 692.911 362.882 691.287 366.21C690.954 366.876 690.622 367.604 690.289 368.29L864.526 368.061Z" fill="white"/>
<path d="M144.62 544.311V549.574L141.998 549.282L139.417 548.97C137.689 548.762 135.983 548.492 134.297 548.263L128.761 547.369L127.637 547.181C124.37 546.599 121.186 545.975 118.105 545.288C116.44 544.914 114.817 544.519 113.215 544.124C110.821 543.541 108.511 542.917 106.263 542.293C104.016 541.669 101.331 540.816 98.9583 540.005C97.7929 539.61 96.6482 539.214 95.5036 538.778L93.8178 538.174L92.1944 537.55L91.3828 537.238L90.5919 536.926L89.0102 536.281H88.8645L88.3234 536.032H88.1777L88.7813 524.924C90.0924 525.527 91.4868 526.13 92.9437 526.734L93.5888 526.983L94.0675 527.17C95.6492 527.815 97.3142 528.439 99.0624 529.063L102.184 530.124H102.372C104.453 530.811 106.534 531.476 108.615 532.204H108.906L113.069 533.39L117.106 534.451L119.937 535.137C122.622 535.761 125.39 536.365 128.262 536.926H128.657C132.486 537.675 136.462 538.362 140.541 539.006L141.373 539.131V543.728L144.62 544.311Z" fill="white"/>
<path d="M172.924 389.341V463.727L157.045 457.195V369.829C158.864 373.996 161.44 377.791 164.641 381.02L172.924 389.341Z" fill="white"/>
<path d="M224.495 390.547C224.495 412.929 224.495 435.305 224.495 457.673L208.553 461.833V395.227L224.495 390.547Z" fill="white"/>
<path d="M252.842 516.063V537.405L251.656 537.176L236.796 534.451V534.326L224.309 531.872L208.763 528.731L184.87 523.926L172.82 521.513L169.324 520.805L160.999 519.12L156.962 518.309L144.474 515.875L141.332 515.293L137.169 514.544H136.732L132.299 513.733L128.512 513.046L123.829 512.235H123.704L122.559 512.027L121.061 511.715L118.813 511.341L114.443 510.654L113.277 510.467L112.445 510.342H112.195L110.468 510.093L105.244 509.344H105.119L102.725 509.032L100.79 508.803L99.6453 508.678L97.9179 508.491L96.024 508.304H95.6702H95.1708H94.8794H94.3175H93.9845L91.716 508.137H91.5287H90.2175H89.6348L91.154 479.868C93.4642 479.993 95.7119 480.139 97.9596 480.388C101.331 480.7 104.911 481.116 108.615 481.615H108.907C111.342 481.928 113.839 482.281 116.461 482.697C119.458 483.155 122.58 483.633 125.806 484.195L121.644 508.595L124.495 508.949L128.657 484.673C130.926 485.027 133.257 485.464 135.629 485.901L137.71 486.254L135.629 497.154L161.623 501.314L174.111 503.395C178.814 504.123 183.518 504.892 188.242 505.662L189.678 505.891L213.404 509.635L252.842 516.063Z" fill="white"/>
<path d="M609.683 98.4531C605.687 103.543 601.726 108.861 597.799 114.408C595.787 117.181 593.796 120.024 591.826 122.936C586.443 130.716 581.143 138.78 575.926 147.129V99.5764L576.925 98.4531H609.683Z" fill="white"/>
<path d="M128.324 536.844C125.493 536.282 122.725 535.679 119.999 535.055L117.168 534.369L113.131 533.308V544.124C114.733 544.52 116.357 544.915 118.022 545.289C121.102 545.976 124.265 546.6 127.554 547.182L128.677 547.369L134.213 548.264C135.899 548.493 137.606 548.763 139.333 548.971L141.914 549.283L144.536 549.595V539.548L141.394 539.132L140.561 539.007C136.399 538.383 132.507 537.697 128.677 536.927L128.324 536.844Z" fill="white"/>
<path d="M172.923 514.586V521.513L169.426 520.806L161.101 519.121L157.064 518.309L144.577 515.876L141.434 515.293L137.272 514.544H136.835L132.402 513.733L128.614 513.047L123.931 512.235H123.806L122.662 512.027L121.059 511.715L113.275 510.467V507.181L121.767 508.242L124.618 508.595L128.78 509.094L133.338 509.677L145.014 511.112L147.095 511.383L148.24 511.549L172.923 514.586Z" fill="white"/>
<path d="M144.619 539.527V544.312L141.477 543.708V539.111L144.619 539.527Z" fill="white"/>
<path d="M213.404 509.636L189.512 505.809L188.076 505.58C183.352 504.81 178.648 504.041 173.945 503.312L161.457 501.232L135.63 497.155L128.824 496.053V512.943L132.612 513.63L137.045 514.441H137.482L141.644 515.19L144.787 515.772L157.274 518.206L161.312 519.018L169.636 520.702L173.133 521.41L185.183 523.823L209.075 528.628L224.622 531.769L237.109 534.223V534.348L251.969 537.073L253.155 537.302V516.064L213.404 509.636ZM141.478 539.112L140.645 538.987C136.483 538.363 132.591 537.676 128.762 536.907V547.307L134.298 548.202C135.983 548.431 137.69 548.701 139.417 548.909L141.998 549.221L144.62 549.533V539.465L141.478 539.112Z" fill="white"/>
<path d="M224.497 551.364C224.497 553.277 224.497 555.337 224.497 557.459V563.2C224.497 565.904 224.497 568.65 224.497 571.312V576.201C224.497 583.668 224.497 590.762 224.497 598.001H157.045V538.467L224.497 551.364Z" fill="white"/>
<path d="M99.0201 528.918L96.2313 536.677L95.4613 538.757L93.7755 538.133L92.1522 537.509L91.3405 537.176L90.5497 536.864L88.968 536.199H88.8223V535.991L92.8182 526.609L93.4633 526.859L93.942 527.046C95.607 527.67 97.2719 528.357 99.0201 528.918Z" fill="white"/>
<path d="M90.5485 536.885L91.3394 537.218L90.5485 536.906L88.9668 536.24L90.5485 536.885Z" fill="white"/>
<path d="M93.7768 538.175L92.1535 537.551L91.3418 537.218L92.1535 537.53L93.7768 538.175Z" fill="white"/>
<path d="M94.005 527.025L93.1309 536.303H92.6314H92.1111L88.8853 536.053H88.2609H88.1152L88.7188 524.945C90.0299 525.549 91.4243 526.152 92.8812 526.755L93.5264 527.005L94.005 527.025Z" fill="white"/>
<path d="M98.4174 479.972L95.7951 508.137H95.4413H95.3164H94.8378H94.5464H93.9845L91.1957 507.929H89.8845H89.6348L91.154 479.66C93.4642 479.785 95.7119 479.931 97.9596 480.18L98.4174 479.972Z" fill="white"/>
<path d="M93.6303 507.93H94.5252H93.9632L91.1744 507.722H91.3617L93.6303 507.93Z" fill="white"/>
<path d="M102.33 530.042L101.352 537.239L96.232 536.615L93.1518 536.282H92.6523L93.5473 526.859L94.0259 527.047C95.6076 527.691 97.2726 528.315 99.0208 528.94L102.143 530L102.33 530.042Z" fill="white"/>
<path d="M108.907 481.18L105.14 509.199H105.015L99.5415 508.533L97.8141 508.346L95.9202 508.159H95.5664L98.2095 480.015C101.581 480.327 105.161 480.743 108.865 481.242L108.907 481.18Z" fill="white"/>
<path d="M104.89 509.178L99.416 508.513L100.561 508.637L102.496 508.866L104.89 509.178Z" fill="white"/>
<path d="M108.676 532.039H108.967L108.031 538.113L101.35 537.135H101.184L102.141 529.896H102.328C104.409 530.729 106.491 531.394 108.676 532.039Z" fill="white"/>
<path d="M116.648 482.303L112.339 510.239H112.09L105.139 509.22H105.014L108.573 481.138H108.864C111.299 481.45 113.796 481.803 116.419 482.219H116.606L116.648 482.303Z" fill="white"/>
<path d="M112.09 510.218L105.139 509.198L110.362 509.947L112.09 510.218Z" fill="white"/>
<path d="M113.171 533.307L117.209 534.368L116.335 539.548L113.171 539.028L111.09 538.695L108.031 538.196H107.719L108.676 532.08H108.967L113.171 533.307Z" fill="white"/>
<path d="M125.804 483.759L121.642 508.159L121.059 511.716L113.276 510.468L112.443 510.343H112.193L116.564 482.428C119.457 482.719 122.579 483.197 125.804 483.759Z" fill="white"/>
<path d="M121.059 511.715L113.275 510.467L114.441 510.633L118.811 511.32L121.059 511.715Z" fill="white"/>
<path d="M120.039 535.055C122.724 535.679 125.492 536.282 128.364 536.844L127.531 541.482L126.22 541.254L119.248 540.026L120.039 535.055Z" fill="white"/>
<path d="M137.586 485.817L135.629 497.154L133.382 509.635L132.632 513.649L128.845 512.963L124.162 512.152H124.037V511.964L124.599 508.532L128.761 484.257C131.03 484.61 133.361 485.047 135.733 485.484L137.586 485.817Z" fill="white"/>
<path d="M132.508 513.65L124.037 512.152C126.784 512.589 129.594 513.13 132.508 513.65Z" fill="white"/>
<path d="M141.997 549.283L139.416 548.971L140.644 538.986L141.476 539.111L144.619 539.527V549.595L141.997 549.283Z" fill="white"/>
<path d="M128.324 536.844C125.493 536.282 122.725 535.679 119.999 535.055L117.168 534.369L113.131 533.308V544.124C114.733 544.52 116.357 544.915 118.022 545.289C121.102 545.976 124.265 546.6 127.554 547.182L128.677 547.369L134.213 548.264C135.899 548.493 137.606 548.763 139.333 548.971L141.914 549.283L144.536 549.595V539.548L141.394 539.132L140.561 539.007C136.399 538.383 132.507 537.697 128.677 536.927L128.324 536.844Z" fill="white"/>
<path d="M172.923 514.586V521.513L169.426 520.806L161.101 519.121L157.064 518.309L144.577 515.876L141.434 515.293L137.272 514.544H136.835L132.402 513.733L128.614 513.047L123.931 512.235H123.806L122.662 512.027L121.059 511.715L113.275 510.467V507.181L121.767 508.242L124.618 508.595L128.78 509.094L133.338 509.677L145.014 511.112L147.095 511.383L148.24 511.549L172.923 514.586Z" fill="white"/>
<path d="M144.619 539.527V544.312L141.477 543.708V539.111L144.619 539.527Z" fill="white"/>
<path d="M99.0201 528.918L96.2313 536.677L95.4613 538.757L93.7755 538.133L92.1522 537.509L91.3405 537.176L90.5497 536.864L88.968 536.199H88.8223V535.991L92.8182 526.609L93.4633 526.859L93.942 527.046C95.607 527.67 97.2719 528.357 99.0201 528.918Z" fill="white"/>
<path d="M90.5485 536.885L91.3394 537.218L90.5485 536.906L88.9668 536.24L90.5485 536.885Z" fill="white"/>
<path d="M93.7768 538.175L92.1535 537.551L91.3418 537.218L92.1535 537.53L93.7768 538.175Z" fill="white"/>
<path d="M94.005 527.025L93.1309 536.303H92.6314H92.1111L88.8853 536.053H88.2609H88.1152L88.7188 524.945C90.0299 525.549 91.4243 526.152 92.8812 526.755L93.5264 527.005L94.005 527.025Z" fill="white"/>
<path d="M98.4174 479.972L95.7951 508.137H95.4413H95.3164H94.8378H94.5464H93.9845L91.1957 507.929H89.8845H89.6348L91.154 479.66C93.4642 479.785 95.7119 479.931 97.9596 480.18L98.4174 479.972Z" fill="white"/>
<path d="M93.6303 507.93H94.5252H93.9632L91.1744 507.722H91.3617L93.6303 507.93Z" fill="white"/>
<path d="M102.33 530.042L101.352 537.239L96.232 536.615L93.1518 536.282H92.6523L93.5473 526.859L94.0259 527.047C95.6076 527.691 97.2726 528.315 99.0208 528.94L102.143 530L102.33 530.042Z" fill="white"/>
<path d="M108.907 481.18L105.14 509.199H105.015L99.5415 508.533L97.8141 508.346L95.9202 508.159H95.5664L98.2095 480.015C101.581 480.327 105.161 480.743 108.865 481.242L108.907 481.18Z" fill="white"/>
<path d="M104.89 509.178L99.416 508.513L100.561 508.637L102.496 508.866L104.89 509.178Z" fill="white"/>
<path d="M108.676 532.039H108.967L108.031 538.113L101.35 537.135H101.184L102.141 529.896H102.328C104.409 530.729 106.491 531.394 108.676 532.039Z" fill="white"/>
<path d="M116.648 482.303L112.339 510.239H112.09L105.139 509.22H105.014L108.573 481.138H108.864C111.299 481.45 113.796 481.803 116.419 482.219H116.606L116.648 482.303Z" fill="white"/>
<path d="M112.09 510.218L105.139 509.198L110.362 509.947L112.09 510.218Z" fill="white"/>
<path d="M113.171 533.307L117.209 534.368L116.335 539.548L113.171 539.028L111.09 538.695L108.031 538.196H107.719L108.676 532.08H108.967L113.171 533.307Z" fill="white"/>
<path d="M125.804 483.759L121.642 508.159L121.059 511.716L113.276 510.468L112.443 510.343H112.193L116.564 482.428C119.457 482.719 122.579 483.197 125.804 483.759Z" fill="white"/>
<path d="M121.059 511.715L113.275 510.467L114.441 510.633L118.811 511.32L121.059 511.715Z" fill="white"/>
<path d="M120.039 535.055C122.724 535.679 125.492 536.282 128.364 536.844L127.531 541.482L126.22 541.254L119.248 540.026L120.039 535.055Z" fill="white"/>
<path d="M137.586 485.817L135.629 497.154L133.382 509.635L132.632 513.649L128.845 512.963L124.162 512.152H124.037V511.964L124.599 508.532L128.761 484.257C131.03 484.61 133.361 485.047 135.733 485.484L137.586 485.817Z" fill="white"/>
<path d="M132.508 513.65L124.037 512.152C126.784 512.589 129.594 513.13 132.508 513.65Z" fill="white"/>
<path d="M141.997 549.283L139.416 548.971L140.644 538.986L141.476 539.111L144.619 539.527V549.595L141.997 549.283Z" fill="white"/>
<path d="M609.683 98.4531C605.687 103.543 601.726 108.861 597.799 114.408C595.787 117.181 593.796 120.024 591.826 122.936C586.443 130.716 581.143 138.78 575.926 147.129V98.4531H609.683Z" fill="white"/>
<path d="M931 126.743V180.681H758.49V175.731H660.881L659.612 202.772C658.979 214.519 657.589 226.213 655.45 237.781C653.368 248.931 650.704 260.663 647.291 272.936L647.042 273.872C646.917 274.288 646.813 274.704 646.688 275.12C645.814 278.157 644.898 281.215 643.92 284.293C634.345 314.718 621.064 343.85 604.377 371.035V126.743H931Z" fill="white"/>
<path d="M132.529 513.608L136.962 514.461L132.529 513.65L128.741 512.964L124.059 512.152H123.934L122.789 511.944C122.789 511.944 122.789 511.799 122.789 511.736L123.955 511.965L128.72 512.88L132.529 513.608Z" fill="white"/>
<path d="M251.822 536.678C251.822 536.844 251.822 537.01 251.655 537.177L236.795 534.452V534.327L224.308 531.872L208.762 528.731L184.869 523.926L172.819 521.513L169.323 520.806L160.998 519.121L172.84 521.409L251.822 536.678Z" fill="white"/>
<path d="M817.908 162.251H632.682V180.972H817.908V162.251Z" fill="white"/>
</g>
<defs>
<clipPath id="clip0_120_2">
<rect width="930.65" height="598" fill="white" transform="translate(0.349609)"/>
</clipPath>
</defs>
</svg>
