<svg width="164" height="41" viewBox="0 0 164 41" fill="none" xmlns="http://www.w3.org/2000/svg">
<g clip-path="url(#clip0_755_10804)">
<mask id="mask0_755_10804" style="mask-type:luminance" maskUnits="userSpaceOnUse" x="0" y="0" width="41" height="37">
<path d="M40.2539 0.213867H0.253906V36.2139H40.2539V0.213867Z" fill="white"/>
</mask>
<g mask="url(#mask0_755_10804)">
<path d="M24.1065 7.47401C22.7226 6.2135 19.593 5.03271 16.7531 7.37105C24.5378 -0.605976 32.9307 3.45928 35.8595 6.50247C38.7883 9.54567 40.2541 13.7365 40.2541 18.0296C40.2541 29.7848 31.4875 36.2134 20.2896 36.2134C10.2677 36.2134 5.86765 31.1745 4.54688 29.8161C7.90237 33.2673 13.4464 34.2163 16.8803 33.1954C20.6761 32.0669 22.8948 29.8588 23.873 28.9399C25.767 27.1605 27.7894 24.3113 27.7894 18.0296C27.7894 11.7479 25.4904 8.73451 24.1065 7.47401Z" fill="white"/>
<path d="M10.7187 18.3975C10.7187 15.0409 11.2593 12.4792 12.1298 10.4619C13.0065 8.43071 14.1728 7.05583 15.2656 6.0293C16.0552 5.28746 17.8135 3.54354 20.664 2.2207C20.517 2.21832 20.3686 2.21387 20.2187 2.21387C14.9862 2.21387 10.4907 3.71518 7.33789 6.41602C4.22325 9.08416 2.25396 13.0589 2.25391 18.3975C2.25391 22.2513 3.57028 25.9201 6.08985 28.5381C7.26909 29.7633 9.6846 31.2964 12.6113 31.6367C13.772 31.7717 15.0396 31.7216 16.372 31.3672C15.8573 31.0791 15.411 30.7563 15.0546 30.4316C13.253 28.7905 10.7187 25.2394 10.7187 18.3975ZM12.7255 18.9775C12.8618 24.8659 15.0607 27.732 16.4013 28.9531C17.7852 30.2136 20.9151 31.3947 23.7548 29.0566C16.2134 36.7842 8.10069 33.2105 4.93848 30.2129L4.64844 29.9248C1.7197 26.8816 0.253906 22.6906 0.253906 18.3975C0.254004 6.64237 9.02095 0.213866 20.2187 0.213867L21.1416 0.228516C30.5122 0.525359 34.6813 5.2953 35.9609 6.61133C32.6055 3.1603 27.0618 2.21073 23.6279 3.23145L23.2763 3.34082C19.6944 4.49715 17.5823 6.59715 16.6347 7.4873C14.7407 9.26662 12.7188 12.1161 12.7187 18.3975L12.7255 18.9775Z" fill="white"/>
</g>
<path d="M146.018 9.01478L151.95 23.5475L157.443 9.01478H163.193L153.281 33.9086L153.28 33.9115C152.424 35.9799 151.315 37.5382 149.942 38.565L149.943 38.5653C148.564 39.6253 146.892 40.1507 144.941 40.1507H142.021L141.97 35.4171H144.443C145.326 35.4171 146.068 35.1703 146.683 34.6837L146.689 34.6795C147.305 34.2191 147.81 33.5038 148.192 32.5107L149.199 29.7993L140.262 9.01478H146.018ZM82.9938 15.6067C82.9938 14.966 82.695 14.4213 82.0544 13.9634L82.0495 13.9598L82.0448 13.956C81.4377 13.4757 80.6091 13.2229 79.5326 13.2229C78.1272 13.223 77.0634 13.5761 76.3076 14.2527C75.5618 14.9183 75.1406 15.685 75.028 16.5565L75.0007 16.7676L69.4288 16.8156L69.4568 16.5458C69.6117 15.0481 70.108 13.6823 70.9459 12.4519C71.7866 11.2174 72.9375 10.2557 74.3921 9.56661L74.5296 9.50033C75.9531 8.82477 77.547 8.48933 79.3062 8.48933C82.1555 8.48934 84.4116 9.21542 86.0404 10.6976L86.1934 10.8351C87.7481 12.2675 88.523 14.1129 88.5231 16.351V31.3937H82.9938V29.222C82.3179 29.9189 81.5165 30.4845 80.5908 30.9179L80.3603 31.0219C79.1219 31.5608 77.8491 31.8315 76.5441 31.8315C75.2381 31.8315 74.0105 31.5944 72.8635 31.1191L72.6353 31.021C71.4184 30.4779 70.4461 29.6905 69.7249 28.6595L69.7232 28.6569C68.9993 27.5917 68.6404 26.3619 68.6404 24.9766C68.6404 23.959 68.8104 23.0377 69.1558 22.2168L69.2231 22.0585C69.5688 21.2755 70.0693 20.6223 70.725 20.1035L70.7267 20.1021L70.7287 20.1007C72.2011 18.9798 74.3391 18.3148 77.1109 18.0791L77.6269 18.0352C78.7898 17.9335 79.696 17.8323 80.3479 17.7316C81.0725 17.591 81.704 17.3542 82.2461 17.024C82.7457 16.6922 82.9937 16.2298 82.9938 15.6067ZM121.45 9.01478V31.3937H115.876V9.01478H121.45ZM121.586 0.257812V6.10553H115.694V0.257812H121.586ZM74.3507 24.6701C74.3507 25.3932 74.6105 26.0021 75.1353 26.5104C75.6217 26.9546 76.2992 27.2258 77.1922 27.3041L77.374 27.3171L77.3764 27.3174L77.5336 27.3257C78.3193 27.3568 79.1212 27.2287 79.9412 26.9383C80.804 26.6038 81.521 26.0905 82.096 25.3963C82.6626 24.6835 82.9652 23.8159 82.9941 22.7809L83.0305 21.1941C82.6365 21.3448 82.1555 21.48 81.5908 21.6008L81.2573 21.6687C80.3391 21.8463 79.2718 21.9788 78.0571 22.0669C76.7672 22.1821 75.837 22.4704 75.2345 22.9056C74.6451 23.3314 74.3507 23.9105 74.3507 24.6701ZM133.259 24.1447C133.259 25.2429 133.442 25.9208 133.739 26.2591C134.057 26.5873 134.701 26.7912 135.77 26.7912H139.103L139.052 31.3937H134.502C132.635 31.3937 131.076 30.8349 129.846 29.7069L129.842 29.7024C128.643 28.5437 128.047 27.0788 128.047 25.327V13.4417H124.515V9.01478H128.047V2.00902H133.259V9.01478H139.055V13.4417H133.259V24.1447ZM66.176 20.0729C66.176 22.47 65.6706 24.5552 64.6502 26.3199C63.6645 28.0476 62.3658 29.3664 60.7524 30.2665C59.1756 31.163 57.4871 31.6125 55.6912 31.6125C53.965 31.6125 52.4814 31.3058 51.2509 30.6806L51.1329 30.6191C50.1327 30.0871 49.2898 29.4545 48.6077 28.7201V40.1507H43.5312V9.01478H48.6077V11.486C48.8602 11.1954 49.1775 10.9009 49.5552 10.6021C50.2439 10.028 51.0981 9.54942 52.1124 9.16301C53.1423 8.74154 54.2912 8.53305 55.5553 8.53304C57.2623 8.53304 58.9337 8.98345 60.5662 9.87637C62.211 10.7467 63.5556 12.0649 64.6018 13.8199L64.6991 13.9838C65.6873 15.6884 66.176 17.7214 66.176 20.0729ZM48.653 19.9415C48.653 21.282 48.9031 22.4869 49.3989 23.5601C49.9242 24.6028 50.6342 25.4133 51.5275 25.9992C52.4506 26.585 53.4891 26.8789 54.6498 26.8789C56.3926 26.8789 57.8018 26.2785 58.8988 25.0783L59.0001 24.9645C60.0321 23.7777 60.5564 22.2559 60.5564 20.3793C60.5564 18.2919 59.9953 16.6138 58.8932 15.3238L58.8915 15.3219C57.7918 14.0066 56.3844 13.3543 54.6498 13.3543C52.8785 13.3543 51.4395 13.968 50.3123 15.1965L50.2106 15.3131C49.1768 16.5282 48.653 18.0651 48.653 19.9415ZM96.8206 19.8976C96.8206 21.3883 97.0723 22.6814 97.5682 23.7827L97.6635 23.9817C98.1496 24.9599 98.7849 25.7179 99.565 26.2653C100.428 26.8208 101.375 27.0979 102.41 27.0979C103.718 27.0979 104.772 26.748 105.594 26.0641C106.429 25.3397 106.943 24.4678 107.143 23.4427L107.182 23.2449H112.749L112.711 23.5199C112.495 25.1067 111.905 26.5321 110.944 27.792L110.942 27.7944C109.981 29.0239 108.741 29.9818 107.227 30.669L107.228 30.6692C105.742 31.3576 104.104 31.7001 102.319 31.7001C100.166 31.7001 98.2352 31.2239 96.5328 30.2661L96.5307 30.2646L96.5281 30.2632C94.8584 29.2764 93.5448 27.9156 92.5888 26.1859L92.5863 26.1817C91.6606 24.421 91.2009 22.4266 91.2008 20.2042C91.2008 18.05 91.6471 16.11 92.5451 14.3895L92.6334 14.2237C93.5893 12.4352 94.9186 11.0439 96.6205 10.0564L96.6222 10.0555L96.7854 9.96426C98.4778 9.03782 100.385 8.57674 102.501 8.57674C104.256 8.57675 105.878 8.91952 107.364 9.6077L107.502 9.67303C108.921 10.3548 110.084 11.2907 110.986 12.4804L111.075 12.5937C111.986 13.771 112.531 15.118 112.712 16.6296L112.744 16.9009H107.193L107.146 16.7151C106.888 15.6871 106.329 14.827 105.464 14.1297L105.46 14.1271L105.457 14.124C104.634 13.4103 103.594 13.0476 102.319 13.0476C101.314 13.0477 100.398 13.3245 99.5643 13.8805L99.5617 13.8821L99.5594 13.8836C98.73 14.409 98.0642 15.1878 97.5673 16.2336L97.5661 16.236C97.0724 17.2471 96.8206 18.4651 96.8206 19.8976Z" fill="white"/>
</g>
<defs>
<clipPath id="clip0_755_10804">
<rect width="164" height="41" fill="white"/>
</clipPath>
</defs>
</svg>
