<svg width="128" height="55" viewBox="0 0 128 55" fill="none" xmlns="http://www.w3.org/2000/svg">
<path d="M0.206952 15.449C0.206952 15.3201 0.206943 11.7773 0 9.52274H9.79532L10.0712 14.4183C11.037 12.9368 13.7962 8.76047 21.3841 8.76047C28.2133 8.76047 31.1105 12.6147 32.0072 14.8692C32.766 16.8661 32.973 18.5409 32.973 24.5959V42.1813H22.5568V21.9549C22.671 20.75 22.482 19.5367 22.005 18.412C21.5507 17.5535 20.84 16.8362 19.9587 16.3466C19.0773 15.857 18.0631 15.6161 17.0383 15.653C16.0002 15.6322 14.9725 15.8506 14.0461 16.2887C13.1197 16.7268 12.3232 17.3713 11.7268 18.1651C10.802 19.6654 10.3702 21.3866 10.4851 23.1144V42.1813H0.206952V15.449Z" fill="white"/>
<path d="M42.9062 9.66231L50.7701 31.7461L58.8179 9.66231H68.6822L56.0816 42.1813H44.7687L32.0532 9.66231H42.9062Z" fill="white"/>
<path d="M101.195 9.79114C100.875 12.4611 100.713 15.1456 100.712 17.8323V41.8593C100.712 53.8405 90.0203 55 83.3291 55C78.3625 55 68.6362 54.4203 68.0153 44.5647H77.8107C77.9486 45.531 78.4315 49.0738 83.881 49.0738C86.9162 49.0738 89.5374 47.721 90.2273 44.7794C90.6411 43.169 90.6411 42.0096 90.7101 37.0496C89.6713 38.4659 88.2675 39.6153 86.628 40.3921C84.9886 41.1688 83.1662 41.5478 81.3287 41.4942C71.3264 41.4942 66.6357 33.3779 66.6357 25.5192C66.6357 17.274 71.5334 9.41534 81.5816 9.41534C87.9279 9.41534 90.2732 12.6362 91.3079 14.0426L91.6529 9.74822L101.195 9.79114ZM83.674 35.0313C90.8481 35.0313 90.8481 27.1726 90.8481 25.7554C90.8481 22.0837 90.0893 15.8355 83.881 15.8355C80.0181 15.8355 76.8449 18.6053 76.8449 25.5622C76.8909 27.1726 76.8909 35.0313 83.674 35.0313Z" fill="white"/>
<path d="M127.339 41.7304C124.754 42.4009 122.089 42.7617 119.406 42.804C109.128 42.804 109.128 36.7489 109.128 34.0435V16.1575H102.437V9.8448H109.082V3.47842L119.222 0V9.8448H127.5V16.1575H119.222V30.8442C119.291 33.8073 119.291 35.6754 123.821 35.6754C124.974 35.6832 126.126 35.6186 127.27 35.4821L127.339 41.7304Z" fill="white"/>
</svg>
